<svg xmlns="http://www.w3.org/2000/svg" viewBox="0 0 800 400" preserveAspectRatio="xMidYMid slice">
  <defs>
    <linearGradient id="ink" x1="0" y1="0" x2="1" y2="1">
      <stop offset="0%" stop-color="#12081a"/>
      <stop offset="100%" stop-color="#1b0f2a"/>
    </linearGradient>
    <radialGradient id="glow" cx="50%" cy="50%" r="70%">
      <stop offset="0%" stop-color="#5A2A82" stop-opacity="0.20"/>
      <stop offset="100%" stop-color="#12081a" stop-opacity="0"/>
    </radialGradient>
    <filter id="soften" x="-20%" y="-20%" width="140%" height="140%">
      <feGaussianBlur in="SourceGraphic" stdDeviation="2" />
    </filter>
  </defs>
  <rect width="100%" height="100%" fill="url(#ink)"/>
  <g stroke="#6f3fa3" stroke-opacity="0.12" fill="none" filter="url(#soften)">
    <path d="M-20 280 C 80 260, 140 220, 220 240 S 380 320, 460 300 S 620 240, 820 260" stroke-width="20"/>
    <path d="M-40 340 C 60 300, 120 280, 200 300 S 360 360, 460 340 S 640 300, 840 320" stroke-width="16"/>
    <path d="M-60 220 C 60 200, 140 140, 220 160 S 380 240, 500 220 S 660 160, 860 180" stroke-width="12"/>
    <path d="M-80 180 C 40 160, 120 120, 200 140 S 360 200, 480 180 S 660 120, 880 140" stroke-width="10"/>
  </g>
  <rect width="100%" height="100%" fill="url(#glow)"/>
</svg>

