<?xml version="1.0" encoding="UTF-8"?>
<svg id="Layer_1" xmlns="http://www.w3.org/2000/svg" version="1.1" viewBox="0 0 5050 5050">
  <!-- Generator: Adobe Illustrator 29.7.1, SVG Export Plug-In . SVG Version: 2.1.1 Build 8)  -->
  <defs>
    <style>
      .st0, .st1 {
        fill: #d3266c;
      }

      .st1 {
        stroke: red;
        stroke-dasharray: 5 5;
        stroke-width: 2px;
      }
    </style>
  </defs>
  <rect class="st0" width="5050" height="5050"/>
  <rect id="square--50--50" class="st0" width="50" height="50"/>
  <rect id="square--49--50" class="st0" x="50" width="50" height="50"/>
  <rect id="square--48--50" class="st0" x="100" width="50" height="50"/>
  <rect id="square--47--50" class="st0" x="150" width="50" height="50"/>
  <rect id="square--46--50" class="st0" x="200" width="50" height="50"/>
  <rect id="square--45--50" class="st0" x="250" width="50" height="50"/>
  <rect id="square--44--50" class="st0" x="300" width="50" height="50"/>
  <rect id="square--43--50" class="st0" x="350" width="50" height="50"/>
  <rect id="square--42--50" class="st0" x="400" width="50" height="50"/>
  <rect id="square--41--50" class="st0" x="450" width="50" height="50"/>
  <rect id="square--40--50" class="st0" x="500" width="50" height="50"/>
  <rect id="square--39--50" class="st0" x="550" width="50" height="50"/>
  <rect id="square--38--50" class="st0" x="600" width="50" height="50"/>
  <rect id="square--37--50" class="st0" x="650" width="50" height="50"/>
  <rect id="square--36--50" class="st0" x="700" width="50" height="50"/>
  <rect id="square--35--50" class="st0" x="750" width="50" height="50"/>
  <rect id="square--34--50" class="st0" x="800" width="50" height="50"/>
  <rect id="square--33--50" class="st0" x="850" width="50" height="50"/>
  <rect id="square--32--50" class="st0" x="900" width="50" height="50"/>
  <rect id="square--31--50" class="st0" x="950" width="50" height="50"/>
  <rect id="square--30--50" class="st0" x="1000" width="50" height="50"/>
  <rect id="square--29--50" class="st0" x="1050" width="50" height="50"/>
  <rect id="square--28--50" class="st0" x="1100" width="50" height="50"/>
  <rect id="square--27--50" class="st0" x="1150" width="50" height="50"/>
  <rect id="square--26--50" class="st0" x="1200" width="50" height="50"/>
  <rect id="square--25--50" class="st0" x="1250" width="50" height="50"/>
  <rect id="square--24--50" class="st0" x="1300" width="50" height="50"/>
  <rect id="square--23--50" class="st0" x="1350" width="50" height="50"/>
  <rect id="square--22--50" class="st0" x="1400" width="50" height="50"/>
  <rect id="square--21--50" class="st0" x="1450" width="50" height="50"/>
  <rect id="square--20--50" class="st0" x="1500" width="50" height="50"/>
  <rect id="square--19--50" class="st0" x="1550" width="50" height="50"/>
  <rect id="square--18--50" class="st0" x="1600" width="50" height="50"/>
  <rect id="square--17--50" class="st0" x="1650" width="50" height="50"/>
  <rect id="square--16--50" class="st0" x="1700" width="50" height="50"/>
  <rect id="square--15--50" class="st0" x="1750" width="50" height="50"/>
  <rect id="square--14--50" class="st0" x="1800" width="50" height="50"/>
  <rect id="square--13--50" class="st0" x="1850" width="50" height="50"/>
  <rect id="square--12--50" class="st0" x="1900" width="50" height="50"/>
  <rect id="square--11--50" class="st0" x="1950" width="50" height="50"/>
  <rect id="square--10--50" class="st0" x="2000" width="50" height="50"/>
  <rect id="square--9--50" class="st0" x="2050" width="50" height="50"/>
  <rect id="square--8--50" class="st0" x="2100" width="50" height="50"/>
  <rect id="square--7--50" class="st0" x="2150" width="50" height="50"/>
  <rect id="square--6--50" class="st0" x="2200" width="50" height="50"/>
  <rect id="square--5--50" class="st0" x="2250" width="50" height="50"/>
  <rect id="square--4--50" class="st0" x="2300" width="50" height="50"/>
  <rect id="square--3--50" class="st0" x="2350" width="50" height="50"/>
  <rect id="square--2--50" class="st0" x="2400" width="50" height="50"/>
  <rect id="square--1--50" class="st0" x="2450" width="50" height="50"/>
  <rect id="square-0--50" class="st0" x="2500" width="50" height="50"/>
  <rect id="square-1--50" class="st0" x="2550" width="50" height="50"/>
  <rect id="square-2--50" class="st0" x="2600" width="50" height="50"/>
  <rect id="square-3--50" class="st0" x="2650" width="50" height="50"/>
  <rect id="square-4--50" class="st0" x="2700" width="50" height="50"/>
  <rect id="square-5--50" class="st0" x="2750" width="50" height="50"/>
  <rect id="square-6--50" class="st0" x="2800" width="50" height="50"/>
  <rect id="square-7--50" class="st0" x="2850" width="50" height="50"/>
  <rect id="square-8--50" class="st0" x="2900" width="50" height="50"/>
  <rect id="square-9--50" class="st0" x="2950" width="50" height="50"/>
  <rect id="square-10--50" class="st0" x="3000" width="50" height="50"/>
  <rect id="square-11--50" class="st0" x="3050" width="50" height="50"/>
  <rect id="square-12--50" class="st0" x="3100" width="50" height="50"/>
  <rect id="square-13--50" class="st0" x="3150" width="50" height="50"/>
  <rect id="square-14--50" class="st0" x="3200" width="50" height="50"/>
  <rect id="square-15--50" class="st0" x="3250" width="50" height="50"/>
  <rect id="square-16--50" class="st0" x="3300" width="50" height="50"/>
  <rect id="square-17--50" class="st0" x="3350" width="50" height="50"/>
  <rect id="square-18--50" class="st0" x="3400" width="50" height="50"/>
  <rect id="square-19--50" class="st0" x="3450" width="50" height="50"/>
  <rect id="square-20--50" class="st0" x="3500" width="50" height="50"/>
  <rect id="square-21--50" class="st0" x="3550" width="50" height="50"/>
  <rect id="square-22--50" class="st0" x="3600" width="50" height="50"/>
  <rect id="square-23--50" class="st0" x="3650" width="50" height="50"/>
  <rect id="square-24--50" class="st0" x="3700" width="50" height="50"/>
  <rect id="square-25--50" class="st0" x="3750" width="50" height="50"/>
  <rect id="square-26--50" class="st0" x="3800" width="50" height="50"/>
  <rect id="square-27--50" class="st0" x="3850" width="50" height="50"/>
  <rect id="square-28--50" class="st0" x="3900" width="50" height="50"/>
  <rect id="square-29--50" class="st0" x="3950" width="50" height="50"/>
  <rect id="square-30--50" class="st0" x="4000" width="50" height="50"/>
  <rect id="square-31--50" class="st0" x="4050" width="50" height="50"/>
  <rect id="square-32--50" class="st0" x="4100" width="50" height="50"/>
  <rect id="square-33--50" class="st0" x="4150" width="50" height="50"/>
  <rect id="square-34--50" class="st0" x="4200" width="50" height="50"/>
  <rect id="square-35--50" class="st0" x="4250" width="50" height="50"/>
  <rect id="square-36--50" class="st0" x="4300" width="50" height="50"/>
  <rect id="square-37--50" class="st0" x="4350" width="50" height="50"/>
  <rect id="square-38--50" class="st0" x="4400" width="50" height="50"/>
  <rect id="square-39--50" class="st0" x="4450" width="50" height="50"/>
  <rect id="square-40--50" class="st0" x="4500" width="50" height="50"/>
  <rect id="square-41--50" class="st0" x="4550" width="50" height="50"/>
  <rect id="square-42--50" class="st0" x="4600" width="50" height="50"/>
  <rect id="square-43--50" class="st0" x="4650" width="50" height="50"/>
  <rect id="square-44--50" class="st0" x="4700" width="50" height="50"/>
  <rect id="square-45--50" class="st0" x="4750" width="50" height="50"/>
  <rect id="square-46--50" class="st0" x="4800" width="50" height="50"/>
  <rect id="square-47--50" class="st0" x="4850" width="50" height="50"/>
  <rect id="square-48--50" class="st0" x="4900" width="50" height="50"/>
  <rect id="square-49--50" class="st0" x="4950" width="50" height="50"/>
  <rect id="square-50--50" class="st0" x="5000" width="50" height="50"/>
  <rect id="center-square" class="st1" x="2500" y="2500" width="50" height="50"/>
  <rect id="square-0-0" class="st0" x="2500" y="2500" width="50" height="50"/>
  <rect id="square-1-0" class="st0" x="2550" y="2500" width="50" height="50"/>
  <rect id="square--1-0" class="st0" x="2450" y="2500" width="50" height="50"/>
  <rect id="square-0-1" class="st0" x="2500" y="2550" width="50" height="50"/>
  <rect id="square-0--1" class="st0" x="2500" y="2450" width="50" height="50"/>
</svg>


