<?xml version="1.0" encoding="UTF-8"?><svg xmlns="http://www.w3.org/2000/svg" viewBox="0 0 542.215 819.044"><defs><filter id="wiggleWave" x="-15%" y="-10%" width="130%" height="120%"><feTurbulence type="fractalNoise" baseFrequency="0.006 0.006" numOctaves="1" seed="2" stitchTiles="stitch" result="noise1"><animate attributeName="baseFrequency" dur="3s" values="0.004 0.006;0.008 0.006;0.004 0.006" keyTimes="0;0.5;1" calcMode="spline" keySplines="0.42 0 0.58 1;0.42 0 0.58 1" repeatCount="indefinite"/></feTurbulence><feColorMatrix in="noise1" type="matrix" values="1 0 0 0 0 0 0 0 0 0.5 0 0 1 0 0 0 0 0 1 0" result="xOnlyNoise1"/><feDisplacementMap in="SourceGraphic" in2="xOnlyNoise1" scale="35" xChannelSelector="R" yChannelSelector="G" result="disp1"><animate attributeName="scale" dur="3s" values="35;44;35" keyTimes="0;0.5;1" calcMode="spline" keySplines="0.42 0 0.58 1;0.42 0 0.58 1" repeatCount="indefinite"/></feDisplacementMap><feTurbulence type="fractalNoise" baseFrequency="0.012 0.01" numOctaves="1" seed="7" stitchTiles="stitch" result="noise2"><animate attributeName="baseFrequency" dur="3s" values="0.01 0.01;0.014 0.01;0.01 0.01" keyTimes="0;0.5;1" calcMode="spline" keySplines="0.42 0 0.58 1;0.42 0 0.58 1" repeatCount="indefinite"/></feTurbulence><feColorMatrix in="noise2" type="matrix" values="1 0 0 0 0 0 0 0 0 0.5 0 0 1 0 0 0 0 0 1 0" result="xOnlyNoise2"/><feDisplacementMap in="disp1" in2="xOnlyNoise2" scale="20" xChannelSelector="R" yChannelSelector="G"><animate attributeName="scale" dur="3s" values="20;25;20" keyTimes="0;0.5;1" calcMode="spline" keySplines="0.42 0 0.58 1;0.42 0 0.58 1" repeatCount="indefinite"/></feDisplacementMap></filter></defs><g id="logo-static"><rect x="138.351" y="79.611" width="260.894" height="215.335" fill="#cdc0cb"/><path d="M72.384,344.317c57.549-28.377,124.699-44.664,196.413-44.664,71.155,0,137.813,16.038,195.061,44.005,45.822,6.586,84.567-21.738,77.526-73.122-11.063-80.737-75.674-181.557-142.814-227.046-158.78-107.578-314.78-.332-378.011,155.443-12.723,31.344-30.804,82.855-13.322,114.272,14.272,25.649,39.369,33.466,65.147,31.112ZM271.108,111.608c46.782,0,84.706,33.879,84.706,75.67s-37.924,75.67-84.706,75.67-84.706-33.879-84.706-75.67,37.924-75.67,84.706-75.67Z" fill="#e3e4e5"/></g><g id="wiggles" filter="url(#wiggleWave)"><path d="M444.757,593.545c-17.941,39.28-1.338,87.81,38.462,105.213,8.266,3.615,31.777,10.201,31.374-5.314-.217-8.351-17.134-18.021-23.051-25.017-41.624-49.21,24.549-82.714,28.037-130.987,2.117-29.289-11.314-56.538-30.036-78.012-30.219-34.661-78.311-54.649-73.885-109.011.344-4.22,2.891-20.102,7.516-20.545,1.534-.147,23.532,9.894,28.671,11.291,14.449,3.927,28.539,4.418,41.132,1.832-33.679-64.655-82.453-113.923-139.404-138.46-8.744,33.472-42.334,58.413-82.466,58.413s-73.722-24.941-82.466-58.413c-57.058,24.583-105.909,73.991-139.594,138.827,18.147,3.458,38.394-.004,56.579-7.279,10.187-4.076,14.41-12.535,18.427,2.192,16.313,59.802-43.122,85.589-74.027,123.154-26.487,32.194-39.569,70.664-19.194,110.158,13.87,26.885,37.683,40.268,28.307,75.964-5.293,20.152-16.66,23.963-29.15,36.821-7.297,7.512-6.108,17.8,4.787,19.318,29.12,4.056,59.348-30.824,65.683-56.779,14.462-59.256-40.063-78.197-31.034-125.064,5.893-30.588,35.569-46.969,56.514-66.431,35.452-32.941,59.152-75.466,54.942-125.514,3.187,3.669,4.816,11.759,5.713,16.771,3.615,20.183,3.004,40.822-3.014,60.441-14.868,48.471-55.907,67.038-59.694,125.247-2.748,42.24,12.153,55.951,34.987,86.061,34.254,45.171-12.809,61.227-22.669,99.269-6.331,24.428.434,53.777,20.168,70.234,4.537,3.784,11.731,9.61,17.485,5.448,7.953-5.752-2.419-19.078-4.997-25.948-20.039-53.402,41.458-67.454,44.023-120.982,1.786-37.284-13.896-46.018-31.238-72.815-28.782-44.475,9.245-74.631,29.369-110.054,9.529-16.773,17.193-34.702,21.318-53.661,5.43-24.957,5.125-50.589,6.493-76.01.227-.31,1.188.511,1.499.989,2.497,3.84,6.299,23.284,7.192,28.801,9.014,55.718-3.856,111.889-5.745,167.668-2.092,61.793,11.029,120.682,15.068,182,1.879,28.537.28,61.073,3.969,89.027.659,4.993,2.604,15.496,8.525,16.523,13.334,2.311,11.015-25.946,11.4-33.55,1.292-25.558,1.112-51.355,3.049-76.948,4.733-62.539,18.414-120.425,16.015-184.052-2.081-55.187-14.602-109.562-4.767-164.689,1.673-9.381,5.052-18.4,6.734-27.764,1.685.008,1.901,3.328,1.993,4.489.643,8.06-.425,16.88-.047,25.047,1.726,37.251,8.504,69.514,26.844,102.13,19.855,35.311,59.814,65.305,30.368,110.055-17.387,26.423-34.634,36.524-32.182,73.761,3.439,52.221,63.135,66.616,43.706,118.774-2.642,7.092-12.773,19.508-6.776,26.262,8.615,9.702,26.976-11.538,31.409-18.604,15.292-24.373,14.337-55.567-1.388-79.446-4.578-6.952-10.706-12.74-15.404-19.581-28.815-41.96,12.595-59.61,28.542-92.212,14.443-29.527,10.319-69.18-4.296-98.059-9.424-18.623-25.341-33.316-35.65-51.315-16.451-28.724-20.279-57.592-12.311-89.933l5.123-13.372v30.5c0,25.109,25.191,65.794,41.933,84.026,26.527,28.891,73.649,49.474,68.949,95.964-1.973,19.514-19.937,35.893-27.82,53.153Z" fill="#e3e4e5"/></g><g id="eye-rotor"><circle cx="271.108" cy="187.278" r="38.966" fill="#4e99d3"/></g></svg>